<svg width="24" height="25" viewBox="0 0 24 25" fill="none" xmlns="http://www.w3.org/2000/svg">
<g id="Outline" clip-path="url(#clip0_69_127)">
<path id="Vector" d="M19 1.68994H5C3.67441 1.69153 2.40356 2.21882 1.46622 3.15616C0.528882 4.0935 0.00158786 5.36435 0 6.68994L0 18.6899C0.00158786 20.0155 0.528882 21.2864 1.46622 22.2237C2.40356 23.1611 3.67441 23.6884 5 23.6899H19C20.3256 23.6884 21.5964 23.1611 22.5338 22.2237C23.4711 21.2864 23.9984 20.0155 24 18.6899V6.68994C23.9984 5.36435 23.4711 4.0935 22.5338 3.15616C21.5964 2.21882 20.3256 1.69153 19 1.68994ZM5 3.68994H19C19.5988 3.69112 20.1835 3.87146 20.679 4.20775C21.1744 4.54403 21.5579 5.02089 21.78 5.57694L14.122 13.2359C13.5584 13.7973 12.7954 14.1124 12 14.1124C11.2046 14.1124 10.4416 13.7973 9.878 13.2359L2.22 5.57694C2.44215 5.02089 2.82561 4.54403 3.32105 4.20775C3.81648 3.87146 4.40121 3.69112 5 3.68994ZM19 21.6899H5C4.20435 21.6899 3.44129 21.3739 2.87868 20.8113C2.31607 20.2487 2 19.4856 2 18.6899V8.18994L8.464 14.6499C9.40263 15.5862 10.6743 16.112 12 16.112C13.3257 16.112 14.5974 15.5862 15.536 14.6499L22 8.18994V18.6899C22 19.4856 21.6839 20.2487 21.1213 20.8113C20.5587 21.3739 19.7956 21.6899 19 21.6899Z" fill="#f7941d"/>
</g>
<defs>
<clipPath id="clip0_69_127">
<rect width="24" height="24" fill="white" transform="translate(0 0.689941)"/>
</clipPath>
</defs>
</svg>
