<?xml version="1.0" encoding="UTF-8"?>
<svg id="Layer_2" data-name="Layer 2" xmlns="http://www.w3.org/2000/svg" viewBox="0 0 65.04 80.35">
  <defs>
    <style>
      .cls-1 {
        fill: #f7941d;
      }
    </style>
  </defs>
  <g id="Layer_1-2" data-name="Layer 1">
    <g>
      <path class="cls-1" d="M13.7,40.57c-2.95-2.4-5.8-4.71-8.66-7.04-.9-.73-1.83-1.43-2.67-2.21-2.83-2.65-3.16-6.86-.8-9.82,2.41-3.03,6.75-3.69,9.91-1.29,3.52,2.66,6.88,5.53,10.31,8.31,.96,.77,1.91,1.54,2.97,2.39,.47-.3,.97-.56,1.41-.89,8.14-6.06,16.71-11.46,25.57-16.38,2.94-1.63,6.22-2.69,9.41-3.81,1.15-.4,2.77-.8,3.59,.52,.81,1.3-.2,2.57-1.05,3.49-2.56,2.75-5.11,5.53-7.91,8.01-9.22,8.16-18.3,16.44-26.32,25.82-4.72,5.53-8.9,11.4-11.75,18.14-1.79,4.23-2.92,8.62-3.23,13.21-.02,.34-.09,.68-.18,1.32-1.15-.69-2.18-1.21-3.09-1.87-7.69-5.55-10.54-15.62-6.97-24.6,1.71-4.3,4.52-7.88,7.6-11.28,.57-.63,1.15-1.26,1.86-2.04Z"/>
      <path class="cls-1" d="M32.61,18.06c-5.11,.03-9.15-3.96-9.14-9.02C23.48,4.05,27.44,.04,32.4,0c5.06-.04,9.18,4.03,9.17,9.05-.01,4.96-4.02,8.98-8.96,9.01Z"/>
    </g>
  </g>
</svg>