<svg xmlns="http://www.w3.org/2000/svg" width="20" height="12" viewBox="0 0 20 12" fill="none">
    <path d="M0.132185 5.67962L4.67754 1.13423C4.84081 0.943571 5.12776 0.921344 5.31842 1.08466C5.50908 1.24794 5.53131 1.53489 5.36799 1.72555C5.35276 1.74332 5.33619 1.75992 5.31842 1.77512L1.55032 5.54779H19.5455C19.7965 5.54779 20 5.7513 20 6.00235C20 6.2534 19.7965 6.45687 19.5455 6.45687H1.55032L5.31842 10.225C5.50908 10.3882 5.53131 10.6752 5.36799 10.8659C5.20467 11.0565 4.91776 11.0787 4.7271 10.9154C4.70933 10.9002 4.69273 10.8836 4.67754 10.8659L0.132145 6.32047C-0.0440617 6.14325 -0.0440617 5.85692 0.132185 5.67962Z" fill="#fff"/>
</svg>