<svg width="14" height="15" viewBox="0 0 14 15" fill="none" xmlns="http://www.w3.org/2000/svg">
<path d="M3.125 14.5H0.21875V5.15625H3.125V14.5ZM1.65625 3.90625C0.75 3.90625 0 3.125 0 2.1875C0 1.28125 0.75 0.53125 1.65625 0.53125C2.59375 0.53125 3.34375 1.28125 3.34375 2.1875C3.34375 3.125 2.59375 3.90625 1.65625 3.90625ZM13.9688 14.5H11.0938V9.96875C11.0938 8.875 11.0625 7.5 9.5625 7.5C8.0625 7.5 7.84375 8.65625 7.84375 9.875V14.5H4.9375V5.15625H7.71875V6.4375H7.75C8.15625 5.71875 9.09375 4.9375 10.5 4.9375C13.4375 4.9375 14 6.875 14 9.375V14.5H13.9688Z" fill="#fefefe"/>
</svg>
