<svg width="24" height="25" viewBox="0 0 24 25" fill="none" xmlns="http://www.w3.org/2000/svg">
<g id="Outline" clip-path="url(#clip0_69_129)">
<path id="Vector" d="M12 6.68994C11.2089 6.68994 10.4355 6.92454 9.77772 7.36406C9.11993 7.80359 8.60723 8.4283 8.30448 9.15921C8.00173 9.89011 7.92252 10.6944 8.07686 11.4703C8.2312 12.2462 8.61216 12.959 9.17157 13.5184C9.73098 14.0778 10.4437 14.4587 11.2196 14.6131C11.9956 14.7674 12.7998 14.6882 13.5307 14.3855C14.2616 14.0827 14.8864 13.57 15.3259 12.9122C15.7654 12.2544 16 11.4811 16 10.6899C16 9.62908 15.5786 8.61166 14.8284 7.86151C14.0783 7.11137 13.0609 6.68994 12 6.68994ZM12 12.6899C11.6044 12.6899 11.2178 12.5726 10.8889 12.3529C10.56 12.1331 10.3036 11.8208 10.1522 11.4553C10.0009 11.0899 9.96126 10.6877 10.0384 10.2998C10.1156 9.9118 10.3061 9.55543 10.5858 9.27573C10.8655 8.99602 11.2219 8.80554 11.6098 8.72837C11.9978 8.6512 12.3999 8.69081 12.7654 8.84218C13.1308 8.99356 13.4432 9.2499 13.6629 9.5788C13.8827 9.9077 14 10.2944 14 10.6899C14 11.2204 13.7893 11.7291 13.4142 12.1042C13.0391 12.4792 12.5304 12.6899 12 12.6899Z" fill="#f7941d"/>
<path id="Vector_2" d="M12.0001 24.69C11.158 24.6943 10.3272 24.4968 9.57713 24.114C8.82709 23.7313 8.17966 23.1744 7.68907 22.49C3.87807 17.233 1.94507 13.281 1.94507 10.743C1.94507 8.07624 3.00443 5.51871 4.89011 3.63303C6.77579 1.74735 9.33332 0.687988 12.0001 0.687988C14.6668 0.687988 17.2243 1.74735 19.11 3.63303C20.9957 5.51871 22.0551 8.07624 22.0551 10.743C22.0551 13.281 20.1221 17.233 16.3111 22.49C15.8205 23.1744 15.173 23.7313 14.423 24.114C13.673 24.4968 12.8421 24.6943 12.0001 24.69ZM12.0001 2.87099C9.91249 2.87337 7.91109 3.70371 6.43494 5.17986C4.9588 6.65601 4.12845 8.6574 4.12607 10.745C4.12607 12.755 6.01907 16.472 9.45507 21.211C9.74676 21.6128 10.1294 21.9398 10.5718 22.1653C11.0141 22.3907 11.5036 22.5083 12.0001 22.5083C12.4966 22.5083 12.986 22.3907 13.4284 22.1653C13.8707 21.9398 14.2534 21.6128 14.5451 21.211C17.9811 16.472 19.8741 12.755 19.8741 10.745C19.8717 8.6574 19.0413 6.65601 17.5652 5.17986C16.0891 3.70371 14.0877 2.87337 12.0001 2.87099Z" fill="#f7941d"/>
</g>
<defs>
<clipPath id="clip0_69_129">
<rect width="24" height="24" fill="white" transform="translate(0 0.689941)"/>
</clipPath>
</defs>
</svg>
