<?xml version="1.0" encoding="UTF-8"?>
<svg id="Layer_2" data-name="Layer 2" xmlns="http://www.w3.org/2000/svg" viewBox="0 0 179.53 126.03">
  <defs>
    <style>
      .cls-1 {
        fill: #f7941d;
      }
    </style>
  </defs>
  <g id="Layer_1-2" data-name="Layer 1">
    <g>
      <path class="cls-1" d="M13.7,40.57c-2.95-2.4-5.8-4.71-8.66-7.04-.9-.73-1.83-1.43-2.67-2.21-2.83-2.65-3.16-6.86-.8-9.82,2.41-3.03,6.75-3.69,9.91-1.29,3.52,2.66,6.88,5.53,10.31,8.31,.96,.77,1.91,1.54,2.97,2.39,.47-.3,.97-.56,1.41-.89,8.14-6.06,16.71-11.46,25.57-16.38,2.94-1.63,6.22-2.69,9.41-3.81,1.15-.4,2.77-.8,3.59,.52,.81,1.3-.2,2.57-1.05,3.49-2.56,2.75-5.11,5.53-7.91,8.01-9.22,8.16-18.3,16.44-26.32,25.82-4.72,5.53-8.9,11.4-11.75,18.14-1.79,4.23-2.92,8.62-3.23,13.21-.02,.34-.09,.68-.18,1.32-1.15-.69-2.18-1.21-3.09-1.87-7.69-5.55-10.54-15.62-6.97-24.6,1.71-4.3,4.52-7.88,7.6-11.28,.57-.63,1.15-1.26,1.86-2.04Z"/>
      <path class="cls-1" d="M32.61,18.06c-5.11,.03-9.15-3.96-9.14-9.02C23.48,4.05,27.44,.04,32.4,0c5.06-.04,9.18,4.03,9.17,9.05-.01,4.96-4.02,8.98-8.96,9.01Z"/>
    </g>
    <path d="M47.23,72.91c0-2.62,5.46-6.69,16.37-12.22,9.46-4.51,16.73-11.35,21.83-20.52h-4.58c-7.13-.29-11.5-2-13.1-5.13-1.6-3.12-2.4-5.57-2.4-7.31,0-3.05,1.38-6.25,4.15-9.6,4.22-4.22,8.66-6.33,13.31-6.33,1.75,0,3.56,.29,5.46,.87,6.69,2.33,10.33,7.86,10.91,16.59h1.96v10.91h-3.93c-5.53,13.39-14.92,23.36-28.16,29.9-6.11,3.06-10.4,4.65-12.88,4.8-2.47,.14-3.93,.22-4.37,.22-3.05,0-4.58-.73-4.58-2.19ZM83.46,22.93c-2.18,0-4,.66-5.46,1.96-1.02,1.02-1.53,1.9-1.53,2.62,0,1.17,1.45,1.75,4.37,1.75h7.64c-.3-4.22-1.96-6.33-5.02-6.33Z"/>
    <path d="M100.7,40.17c-.44-1.45-.66-3.27-.66-5.46s.22-4,.66-5.45c7.27,0,12.77-1.42,16.48-4.26,3.71-2.84,6.8-6,9.28-9.49,5.09-7.43,10.55-11.13,16.37-11.13,3.93,0,6.84,2.62,8.73,7.86,.73,2.33,1.09,4.73,1.09,7.21,0,10.77-3.78,17.53-11.35,20.3l-3.05,.21c-5.53,0-9.75-2.54-12.66-7.63-4.95,5.09-12.81,7.71-23.57,7.86h-1.31Zm40.05-14.51c.51-2.4,.77-4.55,.77-6.44,0-1.31-.08-2.47-.22-3.49-1.02,.73-2.44,2.04-4.26,3.93-1.82,1.9-2.73,3.64-2.73,5.24,0,1.17,.66,2.33,1.97,3.49,.58,.58,1.16,.88,1.75,.88,1.31,0,2.22-1.2,2.73-3.6Z"/>
    <path d="M172.41,12.67c1.38-.44,2.73-.36,4.03,.22,1.45,.73,2.4,1.78,2.84,3.16,.44,1.38,.29,2.81-.44,4.26-5.97,12.37-11.79,22.84-17.46,31.43-4.37,6.69-9.9,13.61-16.59,20.73-7.71,7.56-12.69,10.33-14.95,8.3-2.25-2.04,1.2-8.51,10.37-19.43,4.66-5.38,8.73-10.62,12.22-15.71,5.24-8,10.84-18.12,16.81-30.34,.73-1.31,1.78-2.18,3.16-2.62Z"/>
    <path d="M31.51,121.93c-.03,.27-.2,.61-.49,1-.29,.39-.65,.78-1.08,1.16-.43,.38-.89,.69-1.39,.95s-.95,.39-1.36,.39-.85-.14-1.31-.41-.91-.61-1.36-1c-.45-.39-.86-.81-1.26-1.26-.39-.44-.74-.85-1.05-1.23v-.05c-.07-.04-.13-.08-.18-.15-.05-.07-.1-.1-.13-.1-.72-.79-1.47-1.59-2.26-2.41-.79-.82-1.56-1.6-2.31-2.33-.75-.74-1.46-1.42-2.13-2.06-.67-.63-1.22-1.15-1.67-1.56l-.31,1.38c-.17,.79-.32,1.63-.46,2.54s-.24,1.84-.31,2.8c-.07,.79-.27,1.55-.62,2.29-.34,.73-.76,1.38-1.26,1.92-.49,.55-1.04,.98-1.64,1.31-.6,.32-1.19,.49-1.77,.49-.68,0-1.2-.2-1.56-.59-.36-.39-.52-.98-.49-1.77l.05,.1c-.04-.61,0-1.34,.08-2.18,.08-.84,.2-1.73,.36-2.69s.33-1.95,.54-2.97,.41-2.02,.62-2.98l.31-1.38c.14-.69,.32-1.5,.56-2.44s.49-1.94,.77-3l.82-3.18c.27-1.06,.53-2.07,.77-3.03,.14-.48,.27-.95,.38-1.41,.12-.46,.23-.88,.33-1.26,.1-.17,.12-.38,.05-.61l-.05-.1h-.05c-.17-.1-.34-.21-.51-.33-.17-.12-.33-.29-.49-.49-.15-.2-.27-.45-.36-.74-.09-.29-.1-.64-.03-1.05,.1-.69,.59-1.28,1.46-1.77s1.93-.91,3.18-1.23c1.25-.32,2.59-.57,4.03-.72,1.44-.15,2.77-.23,4-.23,2.43,0,4.53,.27,6.31,.82,1.78,.54,3.18,1.33,4.21,2.36,1.03,1.03,1.67,2.25,1.93,3.69s.08,3.03-.54,4.77c-.55,1.47-1.38,2.79-2.49,3.95s-2.46,2.19-4.03,3.08v-.05c-1,.58-1.93,1.03-2.8,1.36-.87,.32-1.67,.63-2.38,.9-.17,.07-.29,.1-.36,.1h-.1c.92,1.09,1.87,2.16,2.85,3.21s1.86,1.99,2.64,2.85c1.09,1.16,2.04,2.19,2.85,3.1,.8,.91,1.29,1.62,1.46,2.13v-.15c0,.1,.02,.18,.05,.26v.2l-.05-.15Zm-4.62-21.19c.34-.69,.45-1.36,.33-2.03-.12-.67-.4-1.26-.85-1.77s-1.03-.93-1.74-1.26c-.72-.32-1.5-.49-2.36-.49-.75,0-1.51,.03-2.28,.08-.77,.05-1.45,.13-2.03,.23-.17,.58-.34,1.18-.51,1.79-.17,.62-.34,1.29-.52,2-.38,1.57-.68,2.83-.92,3.75-.24,.92-.45,1.67-.62,2.25l-.26,.67c.17,.04,.32,.05,.46,.05h.51c1.23,0,2.43-.12,3.59-.36,1.16-.24,2.22-.57,3.18-1,.96-.43,1.78-.96,2.46-1.59s1.16-1.36,1.44-2.18l.1-.15Z"/>
    <path d="M67.47,106.85c-.65,2.7-1.65,5.22-3,7.56-1.35,2.34-2.94,4.37-4.77,6.08-1.83,1.71-3.81,3.06-5.95,4.05-2.14,1-4.34,1.49-6.59,1.49-2.12,0-4-.45-5.64-1.34s-2.97-2.11-3.98-3.67c-1.01-1.56-1.67-3.4-2-5.52-.32-2.12-.23-4.39,.28-6.82,.58-2.74,1.55-5.29,2.9-7.67,1.35-2.37,2.94-4.44,4.77-6.2,1.83-1.76,3.82-3.15,5.97-4.15,2.16-1.01,4.34-1.51,6.57-1.51,1.57,0,3.03,.22,4.36,.67,1.33,.44,2.51,1.07,3.54,1.87,1.03,.8,1.87,1.78,2.54,2.92,.67,1.15,1.12,2.43,1.36,3.83,.1,.69,.15,1.48,.13,2.41s-.06,1.82-.13,2.67c-.07,.86-.15,1.62-.23,2.28-.09,.67-.16,1.08-.23,1.26l.1-.2Zm-6.06-3.72c.07-1.01,.07-1.84,0-2.49-.38-2.16-1.19-3.62-2.44-4.39s-2.81-1.16-4.69-1.16c-1.4,0-2.74,.32-4,.95-1.27,.64-2.42,1.51-3.46,2.62-1.05,1.11-1.95,2.45-2.72,4.01s-1.36,3.26-1.77,5.11c-.38,1.67-.49,3.24-.36,4.69,.13,1.45,.49,2.72,1.05,3.8,.56,1.08,1.34,1.94,2.33,2.57s2.19,.95,3.59,.95,2.8-.34,4.11-1.03c1.3-.69,2.49-1.63,3.56-2.85,1.08-1.22,2-2.64,2.77-4.29,.77-1.64,1.33-3.42,1.67-5.33,.17-1.1,.29-2.15,.36-3.16Z"/>
    <path d="M103.54,118.49c-.07,.17-.13,.35-.18,.54-.05,.19-.11,.41-.18,.64-.17,.58-.38,1.22-.62,1.92-.24,.7-.52,1.35-.85,1.95-.32,.6-.73,1.11-1.2,1.54-.48,.43-1.03,.64-1.64,.64-.55,0-1-.13-1.36-.38-.36-.26-.63-.57-.8-.95-.17-.38-.27-.79-.31-1.23-.03-.44-.01-.87,.05-1.28,.51-2.4,.92-4.45,1.23-6.16s.54-3.26,.69-4.64c.15-1.39,.27-2.72,.36-4.01,.08-1.28,.16-2.71,.23-4.29,0-.17,.02-.3,.05-.41-.34,.61-.68,1.23-1,1.85-.32,.61-.66,1.21-1,1.79-.69,1.26-1.35,2.54-2,3.82-.65,1.28-1.3,2.54-1.95,3.77-.44,.82-.86,1.61-1.25,2.36-.4,.75-.8,1.56-1.21,2.41-.07,.14-.18,.35-.33,.62s-.21,.39-.18,.36c-.31,.61-.65,1.26-1.03,1.93-.38,.67-.81,1.28-1.31,1.85-.49,.56-1.05,1.03-1.67,1.41-.62,.38-1.3,.57-2.05,.57-.69,0-1.22-.2-1.62-.61s-.71-.92-.95-1.51-.41-1.24-.51-1.93c-.1-.69-.17-1.28-.21-1.79-.03-.14-.04-.27-.02-.41,.01-.14,.02-.26,.02-.36-.17-1.37-.33-2.74-.49-4.11-.15-1.36-.32-2.74-.49-4.11l-.46-4.15c-.07-.27-.1-.57-.1-.87,0-.35-.02-.7-.05-1.08l-.05,.05c-.03-.41-.04-.67-.02-.77,.01-.1,.03-.17,.05-.2s.02-.08,0-.15c-.02-.07-.08-.26-.18-.57-.21,.66-.43,1.35-.67,2.08-.24,.74-.48,1.49-.72,2.26-.24,.77-.47,1.53-.69,2.28-.22,.75-.44,1.45-.64,2.1-.1,.38-.2,.72-.28,1.03-.08,.31-.16,.58-.23,.82-.07,.2-.16,.57-.28,1.1s-.21,1.04-.28,1.51c-.07,.48-.16,1.03-.28,1.67-.12,.63-.23,1.2-.33,1.72-.21,.89-.42,1.7-.64,2.44-.22,.73-.47,1.24-.74,1.51h-.05c-.21,.24-.51,.53-.92,.87-.41,.35-.86,.66-1.36,.96-.5,.3-.99,.52-1.49,.69-.49,.17-.93,.2-1.31,.09-.72-.33-1.09-.69-1.13-1.04-.04-.36,.01-.86,.15-1.52l.1-.36c.07-.38,.18-.86,.33-1.46,.15-.6,.32-1.23,.49-1.9,.17-.67,.34-1.32,.51-1.95,.17-.63,.32-1.15,.46-1.56,.38-1.1,.71-2.2,1-3.31,.29-1.11,.56-2.18,.8-3.21,.27-1.13,.57-2.3,.9-3.51,.32-1.22,.66-2.35,1-3.42,.51-1.5,1.03-3.02,1.54-4.54,.52-1.52,.98-3.05,1.39-4.59,.17-.65,.47-1.19,.9-1.62,.43-.43,.9-.77,1.41-1.03s1.03-.46,1.56-.62,1-.26,1.41-.33c.65-.14,1.21-.14,1.69,0,.48,.14,.88,.38,1.2,.72s.58,.74,.77,1.2c.19,.46,.32,.95,.38,1.46l.72,6.98c.14,1.54,.27,3.05,.38,4.52s.27,2.96,.44,4.46l.05-.05c.03,.17,.07,.45,.1,.85,.03,.39,.07,.82,.1,1.26,.04,.38,.04,.63,.03,.74s-.03,.23-.03,.33c0,.07,.02,.16,.05,.28,.03,.12,.08,.33,.15,.64,1.16-1.92,2.28-3.93,3.36-6.03s2.09-4.11,3.05-6.03c.24-.55,.5-1.11,.77-1.69,.27-.58,.55-1.13,.82-1.64,.21-.41,.4-.83,.59-1.26,.19-.42,.38-.85,.59-1.26,.44-.95,.96-1.82,1.54-2.59,.58-.77,1.21-1.41,1.9-1.9,.68-.49,1.42-.83,2.21-1,.79-.17,1.59-.14,2.41,.11,.55,.17,.93,.38,1.16,.64,.22,.26,.42,.63,.59,1.1,.07,.21,.11,.64,.13,1.31,.01,.67,.02,1.39,.02,2.18s-.02,1.57-.05,2.36c-.04,.79-.07,1.44-.1,1.95-.04,.17-.04,.36-.03,.59,.02,.22,0,.24-.03,.08-.07,3.08-.34,6.16-.82,9.26-.48,3.1-.96,6.11-1.44,9.06l-.05,.15Z"/>
    <path d="M140.38,106.85c-.66,2.7-1.65,5.22-3.01,7.56-1.35,2.34-2.94,4.37-4.77,6.08-1.83,1.71-3.81,3.06-5.95,4.05-2.14,1-4.34,1.49-6.59,1.49-2.12,0-4-.45-5.64-1.34s-2.97-2.11-3.98-3.67c-1.01-1.56-1.67-3.4-2-5.52-.32-2.12-.23-4.39,.28-6.82,.58-2.74,1.55-5.29,2.9-7.67,1.35-2.37,2.94-4.44,4.77-6.2,1.83-1.76,3.82-3.15,5.97-4.15,2.16-1.01,4.34-1.51,6.57-1.51,1.57,0,3.03,.22,4.36,.67,1.33,.44,2.51,1.07,3.54,1.87,1.03,.8,1.87,1.78,2.54,2.92,.67,1.15,1.12,2.43,1.36,3.83,.1,.69,.14,1.48,.13,2.41s-.06,1.82-.13,2.67c-.07,.86-.15,1.62-.23,2.28s-.16,1.08-.23,1.26l.11-.2Zm-6.06-3.72c.07-1.01,.07-1.84,0-2.49-.38-2.16-1.19-3.62-2.44-4.39s-2.81-1.16-4.69-1.16c-1.4,0-2.74,.32-4,.95-1.27,.64-2.42,1.51-3.46,2.62-1.05,1.11-1.95,2.45-2.72,4.01s-1.36,3.26-1.77,5.11c-.38,1.67-.49,3.24-.36,4.69,.13,1.45,.49,2.72,1.05,3.8,.56,1.08,1.34,1.94,2.33,2.57s2.19,.95,3.59,.95,2.8-.34,4.11-1.03c1.3-.69,2.49-1.63,3.56-2.85,1.08-1.22,2-2.64,2.77-4.29,.77-1.64,1.33-3.42,1.67-5.33,.17-1.1,.29-2.15,.36-3.16Z"/>
    <path class="cls-1" d="M168.88,122.8c-.43,.51-.98,.96-1.63,1.34-.67,.38-1.39,.68-2.18,.92-.79,.24-1.56,.36-2.31,.36h-6.46c-1.61,0-3.24,.02-4.9,.05-1.67,.04-3.64,.12-5.94,.26-.37,.04-.76,.05-1.18,.05h-.92c-.96,0-1.73-.29-2.31-.85-.58-.57-.89-1.3-.92-2.19,.03-.44,.14-.91,.3-1.39,.17-.48,.5-1.01,.98-1.6,.61-.72,1.5-1.73,2.66-3.03,1.17-1.31,2.47-2.75,3.92-4.35s3-3.27,4.62-5.02c1.62-1.75,3.18-3.43,4.7-5.05,.64-.65,1.39-1.4,2.23-2.24s1.67-1.66,2.49-2.44c.27-.27,.55-.54,.82-.8,.26-.26,.52-.52,.76-.8-.24,.04-.51,.05-.82,.05h-.76c-.27,0-.55,0-.8,.02-.26,.02-.52,.02-.8,.02-.58,0-1.16,0-1.72-.02s-1.12-.04-1.67-.08c-.58-.03-1.19-.06-1.85-.08-.64-.02-1.26,0-1.85,.03-.37,0-.7,0-.98,.02s-.57,.04-.92,.08c-.44,.07-.95,.12-1.54,.15-.58,.03-1.22,.05-1.9,.05s-1.18-.21-1.6-.65c-.41-.43-.56-.98-.46-1.64,.18-.43,.43-.87,.75-1.32s.7-.86,1.16-1.24c.44-.38,.94-.7,1.51-.97,.56-.27,1.18-.43,1.87-.5,.55,0,1.19,.03,1.94,.08,.75,.05,1.61,.08,2.57,.08,.81,0,1.67-.02,2.56-.05,.88-.04,1.79-.07,2.72-.11h6.66c2.12,0,3.78,.37,4.98,1.1,1.19,.73,1.76,1.56,1.69,2.49-.04,.51-.23,.99-.6,1.44-.36,.44-.86,.9-1.5,1.38-1.2,.89-2.63,2.07-4.32,3.56s-3.47,3.16-5.36,5.04-3.83,3.88-5.79,6-3.83,4.27-5.57,6.45c-.27,.24-.52,.51-.75,.8-.21,.29-.46,.58-.74,.89h5.79c1.61,0,3.16,0,4.65-.02s2.97-.06,4.43-.13c1.68-.07,2.93,.04,3.78,.33,.83,.29,1.22,.94,1.14,1.93-.04,.55-.26,1.08-.69,1.59Z"/>
  </g>
</svg>