<svg version="1.0" xmlns="http://www.w3.org/2000/svg" viewBox="0 0 900.000000 408.000000"><g transform="translate(0.000000,408.000000) scale(0.100000,-0.100000)" stroke="none"> <path d="M1120 4070 c0 -5 -25 -21 -55 -35 -33 -16 -71 -45 -96 -73 -39 -46 -56 -76 -134 -232 -60 -118 -41 -110 -250 -110 -127 0 -185 -4 -193 -12 -9 -9 -12 -105 -12 -372 l0 -361 -51 -100 c-28 -55 -73 -140 -100 -190 -26 -49 -67 -126 -89 -170 -23 -44 -57 -109 -77 -145 -53 -100 -63 -136 -63 -240 0 -96 12 -147 48 -212 11 -18 47 -87 82 -153 88 -168 150 -286 204 -388 l46 -88 0 -362 c0 -269 3 -366 12 -375 8 -8 66 -12 194 -12 142 0 184 -3 193 -14 6 -7 33 -56 60 -107 86 -168 92 -177 131 -221 21 -24 63 -56 93 -71 l56 -27 3371 0 3371 0 54 26 c31 14 72 45 94 70 36 41 56 76 147 254 49 96 33 90 239 90 127 0 185 4 193 12 9 9 12 105 12 373 l0 360 51 100 c28 55 73 141 100 190 26 50 67 126 89 170 23 44 57 109 77 145 19 36 39 80 45 98 5 17 15 32 23 32 12 0 15 21 15 111 0 70 -4 108 -10 104 -5 -3 -15 7 -21 22 -14 35 -44 96 -121 243 -34 63 -82 156 -108 205 -26 50 -68 130 -94 178 l-46 88 0 362 c0 269 -3 366 -12 375 -8 8 -66 12 -194 12 -142 0 -184 3 -193 14 -6 7 -33 56 -60 107 -26 52 -59 114 -72 139 -32 60 -104 132 -156 155 -24 10 -43 25 -43 32 0 11 -602 13 -3375 13 -2175 0 -3375 -3 -3375 -10z"/></g></svg>