<svg version="1.0" xmlns="http://www.w3.org/2000/svg" viewBox="0 0 624.000000 624.000000"><g transform="translate(0.000000,624.000000) scale(0.100000,-0.100000)" stroke="none"><path d="M3060 6163 c-54 -83 -206 -228 -305 -293 -13 -8 -58 -39 -100 -67 -41 -29 -79 -53 -83 -53 -4 0 -38 -20 -75 -45 -38 -25 -73 -45 -77 -45 -5 0 -37 -19 -72 -42 -90 -60 -101 -67 -118 -75 -35 -16 -220 -161 -276 -217 -221 -219 -322 -412 -341 -652 l-5 -60 -87 -12 c-136 -18 -217 -38 -261 -63 -8 -5 -22 -12 -30 -15 -8 -3 -22 -10 -30 -15 -8 -5 -22 -12 -30 -16 -37 -16 -180 -133 -260 -212 -72 -72 -188 -215 -237 -296 -7 -11 -65 -108 -130 -215 -132 -220 -183 -299 -227 -351 -17 -20 -49 -58 -71 -85 -54 -65 -133 -138 -189 -175 -26 -18 -46 -39 -46 -49 0 -9 18 -29 39 -43 53 -35 135 -109 180 -161 87 -103 115 -138 125 -156 6 -10 33 -52 60 -92 28 -40 61 -93 74 -118 13 -25 35 -59 48 -77 13 -17 24 -36 24 -42 0 -5 19 -38 42 -73 48 -70 64 -96 74 -118 22 -45 169 -226 240 -296 214 -209 396 -302 630 -321 l60 -5 12 -87 c18 -136 38 -217 63 -261 5 -8 12 -22 15 -30 3 -8 10 -22 15 -30 5 -8 12 -22 16 -30 30 -66 278 -340 350 -387 15 -10 53 -36 83 -58 30 -22 64 -45 75 -52 11 -7 103 -63 205 -124 249 -150 309 -191 416 -280 100 -83 152 -138 204 -211 18 -27 41 -48 50 -48 10 0 29 18 43 39 35 53 109 135 161 180 103 87 138 115 156 125 10 6 52 33 92 60 40 28 93 61 118 74 25 13 59 35 77 48 17 13 36 24 42 24 5 0 38 19 73 42 70 48 96 64 118 74 46 23 226 168 295 238 209 214 303 399 322 632 l5 60 87 12 c136 18 217 38 261 63 8 5 22 12 30 15 8 3 22 10 30 15 8 5 22 12 30 16 37 17 180 133 255 209 70 69 197 227 242 299 7 11 63 103 124 205 150 249 191 309 280 416 79 94 134 148 204 199 70 51 71 62 8 105 -83 54 -227 205 -293 305 -8 13 -37 56 -64 97 -28 40 -61 93 -74 118 -13 25 -35 59 -48 77 -13 17 -24 36 -24 42 0 5 -19 38 -42 73 -48 70 -64 96 -74 118 -18 37 -163 221 -218 276 -219 221 -412 322 -652 341 l-60 5 -12 87 c-18 136 -38 217 -63 261 -5 8 -12 22 -15 30 -3 8 -10 22 -15 30 -5 8 -12 22 -16 30 -16 35 -128 174 -205 253 -69 71 -221 193 -303 244 -11 7 -108 65 -215 130 -213 128 -335 207 -346 224 -3 6 -20 19 -37 30 -45 27 -163 145 -210 209 -64 87 -73 89 -117 23z"/></g></svg>