<svg version="1.0" xmlns="http://www.w3.org/2000/svg" viewBox="0 0 900.000000 402.000000"><g transform="translate(0.000000,402.000000) scale(0.100000,-0.100000)" stroke="none"><path d="M4475 3982 c-5 -4 -27 -28 -47 -54 -54 -66 -134 -122 -248 -171 -227 -97 -609 -121 -1000 -62 -496 74 -793 92 -1005 60 -276 -43 -396 -119 -486 -312 l-29 -63 -166 0 c-122 0 -166 -3 -169 -12 -3 -7 -9 -40 -14 -73 -5 -33 -15 -76 -22 -95 -21 -55 -80 -141 -130 -190 -72 -70 -216 -135 -314 -142 l-40 -3 -5 -100 -5 -100 -45 -6 c-48 -6 -125 -30 -162 -51 -91 -52 -205 -159 -274 -259 -110 -157 -186 -249 -243 -294 -34 -27 -61 -51 -61 -55 0 -4 27 -28 61 -55 57 -45 133 -137 243 -294 69 -100 183 -207 274 -259 37 -21 114 -45 162 -51 l45 -6 5 -100 5 -100 40 -3 c98 -7 242 -72 314 -142 50 -49 109 -135 130 -190 7 -19 17 -62 22 -95 5 -33 11 -66 14 -72 3 -10 47 -13 169 -13 l166 0 29 -63 c33 -70 93 -155 131 -185 38 -30 138 -78 200 -95 239 -70 553 -62 1160 28 364 54 668 42 928 -36 34 -10 70 -23 80 -28 9 -5 37 -19 62 -31 70 -35 146 -96 182 -145 51 -69 65 -69 116 0 36 49 112 110 182 145 25 12 53 26 62 31 99 50 389 99 583 99 93 0 307 -18 425 -35 611 -90 915 -98 1160 -28 164 46 258 126 331 280 l29 63 166 0 c122 0 166 3 169 13 3 6 9 39 14 72 5 33 15 76 22 95 21 55 80 141 130 190 72 70 216 135 314 142 l40 3 5 100 5 100 45 6 c48 6 125 30 162 51 91 52 205 159 274 259 110 157 186 249 243 294 34 27 61 51 61 55 0 3 -29 29 -64 58 -58 46 -130 134 -250 306 -61 87 -179 195 -264 244 -37 21 -114 45 -162 51 l-45 6 -5 100 -5 100 -55 6 c-155 17 -294 104 -380 239 -44 69 -60 109 -71 185 -5 33 -11 66 -14 73 -3 9 -47 12 -169 12 l-165 0 -27 58 c-60 127 -117 190 -217 239 -240 118 -571 123 -1277 18 -124 -18 -334 -35 -435 -35 -192 1 -478 50 -571 98 -11 5 -39 20 -64 32 -70 36 -137 88 -178 138 -36 46 -52 62 -62 62 -3 0 -9 -4 -15 -8z"/></g></svg>