 <svg version="1.0" xmlns="http://www.w3.org/2000/svg" viewBox="0 0 594.000000 594.000000"><g transform="translate(0.000000,594.000000) scale(0.100000,-0.100000)" stroke="none"><path d="M2911 5865 c-55 -76 -141 -164 -227 -231 -45 -35 -85 -64 -89 -64 -4 0 -24 -13 -45 -30 -21 -16 -41 -30 -45 -30 -3 0 -21 -11 -38 -24 -18 -13 -54 -36 -82 -51 -27 -14 -63 -35 -80 -46 -16 -10 -39 -23 -50 -29 -32 -17 -55 -32 -133 -85 -40 -28 -81 -54 -90 -60 -9 -5 -30 -21 -46 -35 -187 -160 -297 -287 -360 -415 -60 -123 -67 -146 -80 -257 -6 -54 -17 -103 -24 -110 -7 -7 -56 -18 -110 -24 -53 -7 -113 -17 -132 -24 -85 -31 -118 -46 -158 -72 -24 -15 -46 -28 -49 -28 -11 0 -124 -95 -207 -175 -76 -72 -242 -290 -280 -365 -4 -8 -12 -24 -19 -35 -7 -11 -41 -69 -77 -129 -36 -60 -73 -120 -82 -135 -10 -14 -21 -33 -25 -41 -15 -34 -131 -180 -197 -249 -39 -40 -95 -89 -123 -108 -30 -19 -53 -43 -53 -52 0 -9 29 -38 64 -64 35 -26 90 -75 123 -110 63 -67 153 -181 153 -192 0 -4 14 -24 30 -45 17 -21 30 -40 30 -43 0 -3 13 -25 29 -49 16 -24 39 -61 51 -83 12 -22 30 -53 41 -70 10 -16 23 -39 29 -50 19 -35 34 -59 85 -134 28 -40 55 -82 62 -93 6 -11 15 -23 20 -27 4 -3 34 -39 66 -78 51 -65 230 -226 285 -256 45 -26 169 -85 202 -97 19 -7 79 -17 132 -24 54 -6 103 -17 110 -24 7 -7 18 -56 24 -110 7 -53 17 -113 24 -132 34 -94 54 -138 76 -167 13 -17 24 -35 24 -38 0 -8 57 -83 76 -100 5 -5 30 -34 54 -63 53 -66 178 -171 302 -255 51 -35 100 -66 108 -70 17 -9 19 -10 164 -97 59 -36 120 -73 134 -82 15 -10 34 -21 42 -25 29 -13 172 -125 236 -185 35 -33 85 -89 111 -124 26 -35 54 -64 63 -64 9 0 37 29 63 64 26 35 75 90 110 123 67 63 181 153 192 153 4 0 24 14 45 30 21 17 40 30 43 30 3 0 25 13 49 29 24 16 61 39 83 51 22 12 54 30 70 41 17 10 39 23 50 29 35 19 59 34 134 85 40 28 82 55 93 62 11 6 23 15 27 20 3 4 39 34 78 66 65 51 226 230 256 285 26 45 85 169 97 202 7 19 17 79 24 132 6 54 17 103 24 110 7 7 56 18 110 24 53 7 113 17 132 24 94 34 138 54 167 76 17 13 35 24 38 24 8 0 83 57 100 76 6 5 34 30 63 54 66 53 171 178 255 302 35 51 66 100 70 108 9 17 10 19 97 164 36 59 73 120 82 134 10 15 21 34 25 42 12 28 120 164 182 232 34 37 91 88 126 114 36 27 65 55 65 65 0 9 -19 29 -42 45 -68 46 -165 142 -234 230 -35 45 -64 85 -64 89 0 4 -13 24 -30 45 -16 21 -30 40 -30 43 0 3 -13 25 -29 49 -16 24 -39 61 -51 83 -12 22 -30 54 -41 70 -10 17 -23 39 -29 50 -19 35 -34 59 -85 134 -27 40 -54 80 -60 89 -13 22 -47 61 -125 146 -107 117 -226 211 -325 260 -123 60 -146 67 -257 80 -54 6 -103 17 -110 24 -7 7 -18 56 -24 110 -7 53 -17 113 -24 132 -34 94 -54 138 -76 167 -13 17 -24 35 -24 38 0 13 -91 122 -175 209 -57 60 -160 143 -255 207 -103 69 -108 73 -172 108 -24 13 -62 36 -86 52 -24 16 -47 29 -51 29 -4 0 -26 12 -48 28 -54 37 -75 51 -93 59 -33 15 -179 131 -249 197 -40 39 -89 95 -108 124 -20 29 -42 52 -52 52 -10 0 -32 -20 -50 -45z"/></g></svg>