<svg xmlns="http://www.w3.org/2000/svg" width="20" height="12" viewBox="0 0 20 12" fill="none">
    <path d="M19.8678 5.67962L15.3225 1.13423C15.1592 0.943571 14.8722 0.921344 14.6816 1.08466C14.4909 1.24794 14.4687 1.53489 14.632 1.72555C14.6472 1.74332 14.6638 1.75992 14.6816 1.77512L18.4497 5.54779H0.454523C0.203512 5.54779 0 5.7513 0 6.00235C0 6.2534 0.203512 6.45687 0.454523 6.45687H18.4497L14.6816 10.225C14.4909 10.3882 14.4687 10.6752 14.632 10.8659C14.7953 11.0565 15.0822 11.0787 15.2729 10.9154C15.2907 10.9002 15.3073 10.8836 15.3225 10.8659L19.8679 6.32047C20.0441 6.14325 20.0441 5.85692 19.8678 5.67962Z" fill="#fff"/>
</svg>