<svg width="24" height="25" viewBox="0 0 24 25" fill="none" xmlns="http://www.w3.org/2000/svg">
<g id="Layer_1" clip-path="url(#clip0_69_132)">
<path id="Vector" d="M22.1699 2.50988L21.1199 1.59988C19.9099 0.389883 17.9499 0.389883 16.7399 1.59988C16.7099 1.62988 14.8599 4.03988 14.8599 4.03988C13.7199 5.23988 13.7199 7.12988 14.8599 8.31988L16.0199 9.77988C14.5599 13.0899 12.2899 15.3699 9.08994 16.7299L7.62994 15.5599C6.43994 14.4099 4.53994 14.4099 3.34994 15.5599C3.34994 15.5599 0.939943 17.4099 0.909943 17.4399C-0.300057 18.6499 -0.300057 20.6099 0.859943 21.7699L1.85994 22.9199C3.00994 24.0699 4.55994 24.6999 6.23994 24.6999C13.8799 24.6999 23.9999 14.5699 23.9999 6.93988C23.9999 5.26988 23.3699 3.70988 22.1699 2.51988V2.50988ZM6.23994 22.6899C5.09994 22.6899 4.04994 22.2699 3.32994 21.5399L2.32994 20.3899C1.91994 19.9799 1.89994 19.3099 2.28994 18.8799C2.28994 18.8799 4.67994 17.0399 4.70994 17.0099C5.11994 16.5999 5.83994 16.5999 6.25994 17.0099C6.28994 17.0399 8.29994 18.6499 8.29994 18.6499C8.57994 18.8699 8.94994 18.9299 9.27994 18.7999C13.4199 17.2199 16.3899 14.2599 18.0999 9.98988C18.2299 9.65988 18.1799 9.27988 17.9499 8.98988C17.9499 8.98988 16.3399 6.96988 16.3199 6.94988C15.8899 6.51988 15.8899 5.82988 16.3199 5.39988C16.3499 5.36988 18.1899 2.97988 18.1899 2.97988C18.6199 2.58988 19.2899 2.59988 19.7499 3.05988L20.7999 3.96988C21.5699 4.73988 21.9999 5.78988 21.9999 6.92988C21.9999 13.8899 12.2299 22.6899 6.23994 22.6899Z" fill="#f7941d"/>
</g>
<defs>
<clipPath id="clip0_69_132">
<rect width="24" height="24" fill="white" transform="translate(0 0.689941)"/>
</clipPath>
</defs>
</svg>
